<svg width="0" height="0" class="hidden">
  <symbol fill="none" xmlns="http://www.w3.org/2000/svg" viewBox="0 0 24 17" id="arrow-icon">
    <path d="M2.52621 8.93006L19.8608 8.79321"  stroke-width="2" stroke-linecap="square" stroke-linejoin="round"></path>
    <path d="M13.4125 2.40601L21.6519 8.92899L13.2465 15.5834"  stroke-width="2" stroke-linecap="square" stroke-linejoin="round"></path>
  </symbol>
  <symbol fill="none" xmlns="http://www.w3.org/2000/svg" viewBox="0 0 9 16" id="button__arrow-icon">
    <path d="M1.771 14.6859L7.71386 8.00017L1.771 1.31445" stroke-width="2" stroke-linecap="round" stroke-linejoin="round"></path>
  </symbol>
  <symbol fill="none" xmlns="http://www.w3.org/2000/svg" viewBox="0 0 10 19" id="facebook-icon">
    <path d="M9.18359 10.5469L9.67578 7.3125H6.54688V5.20313C6.54688 4.28907 6.96875 3.44532 8.375 3.44532H9.81641V0.667969C9.81641 0.667969 8.51562 0.421875 7.28516 0.421875C4.71875 0.421875 3.03125 2.00391 3.03125 4.81641V7.3125H0.148438V10.5469H3.03125V18.4219H6.54688V10.5469H9.18359Z" fill="#292F36"></path>
  </symbol>
  <symbol fill="none" xmlns="http://www.w3.org/2000/svg" viewBox="0 0 17 18" id="instagram-icon">
    <path d="M8.5 4.7793C6.125 4.7793 4.23242 6.70899 4.23242 9.04688C4.23242 11.4219 6.125 13.3145 8.5 13.3145C10.8379 13.3145 12.7676 11.4219 12.7676 9.04688C12.7676 6.70899 10.8379 4.7793 8.5 4.7793ZM8.5 11.8301C6.97852 11.8301 5.7168 10.6055 5.7168 9.04688C5.7168 7.52539 6.94141 6.30079 8.5 6.30079C10.0215 6.30079 11.2461 7.52539 11.2461 9.04688C11.2461 10.6055 10.0215 11.8301 8.5 11.8301ZM13.918 4.63086C13.918 4.07422 13.4727 3.62891 12.916 3.62891C12.3594 3.62891 11.9141 4.07422 11.9141 4.63086C11.9141 5.1875 12.3594 5.63282 12.916 5.63282C13.4727 5.63282 13.918 5.1875 13.918 4.63086ZM16.7383 5.63282C16.6641 4.29688 16.3672 3.10938 15.4023 2.14454C14.4375 1.17969 13.25 0.882813 11.9141 0.808594C10.541 0.734375 6.42188 0.734375 5.04883 0.808594C3.71289 0.882813 2.5625 1.17969 1.56055 2.14454C0.595703 3.10938 0.298828 4.29688 0.224609 5.63282C0.150391 7.00586 0.150391 11.125 0.224609 12.4981C0.298828 13.834 0.595703 14.9844 1.56055 15.9864C2.5625 16.9512 3.71289 17.2481 5.04883 17.3223C6.42188 17.3965 10.541 17.3965 11.9141 17.3223C13.25 17.2481 14.4375 16.9512 15.4023 15.9864C16.3672 14.9844 16.6641 13.834 16.7383 12.4981C16.8125 11.125 16.8125 7.00586 16.7383 5.63282ZM14.957 13.9454C14.6973 14.6875 14.1035 15.2442 13.3984 15.5411C12.2852 15.9864 9.6875 15.875 8.5 15.875C7.27539 15.875 4.67773 15.9864 3.60156 15.5411C2.85938 15.2442 2.30273 14.6875 2.00586 13.9454C1.56055 12.8692 1.67188 10.2715 1.67188 9.04688C1.67188 7.85938 1.56055 5.26172 2.00586 4.14844C2.30273 3.44336 2.85938 2.88672 3.60156 2.58985C4.67773 2.14454 7.27539 2.25586 8.5 2.25586C9.6875 2.25586 12.2852 2.14454 13.3984 2.58985C14.1035 2.84961 14.6602 3.44336 14.957 4.14844C15.4023 5.26172 15.291 7.85938 15.291 9.04688C15.291 10.2715 15.4023 12.8692 14.957 13.9454Z" fill="#292F36"></path>
  </symbol>
  <symbol fill="none" xmlns="http://www.w3.org/2000/svg" viewBox="0 0 16 17" id="linkendin-icon">
    <path d="M3.64062 16.1719V5.66016H0.371094V16.1719H3.64062ZM1.98828 4.25391C3.04297 4.25391 3.88672 3.375 3.88672 2.32032C3.88672 1.30079 3.04297 0.457031 1.98828 0.457031C0.96875 0.457031 0.125 1.30079 0.125 2.32032C0.125 3.375 0.96875 4.25391 1.98828 4.25391ZM15.8398 16.1719H15.875V10.4063C15.875 7.59375 15.2422 5.41407 11.9375 5.41407C10.3555 5.41407 9.30078 6.29297 8.84375 7.10157H8.80859V5.66016H5.67969V16.1719H8.94922V10.9688C8.94922 9.59766 9.19531 8.29688 10.8828 8.29688C12.5703 8.29688 12.6055 9.84375 12.6055 11.0743V16.1719H15.8398Z" fill="#292F36"></path>
  </symbol>
  <symbol fill="none" xmlns="http://www.w3.org/2000/svg" viewBox="0 0 34 34" id="phone-icon">
    <path d="M32.0012 26.0749C30.7796 24.8442 27.8211 23.0482 26.3857 22.3243C24.5164 21.3828 24.3625 21.3059 22.8933 22.3974C21.9133 23.1258 21.2617 23.7766 20.1148 23.532C18.9678 23.2874 16.4754 21.9082 14.2931 19.7329C12.1107 17.5576 10.6514 14.9931 10.4061 13.8501C10.1607 12.7071 10.8222 12.0632 11.5438 11.081C12.5607 9.69642 12.4838 9.46566 11.6145 7.59651C10.9368 6.14273 9.08833 3.21208 7.85291 1.99675C6.53134 0.691422 6.53134 0.922181 5.67979 1.27601C4.98652 1.56768 4.32141 1.92222 3.69281 2.3352C2.46201 3.15285 1.77892 3.83206 1.30122 4.85278C0.823512 5.87351 0.608892 8.26648 3.07588 12.7478C5.54286 17.2292 7.27367 19.5206 10.8561 23.0928C14.4385 26.6649 17.1931 28.5856 21.2202 30.844C26.2018 33.6339 28.1126 33.09 29.1365 32.6131C30.1604 32.1362 30.8427 31.4593 31.662 30.2286C32.076 29.6011 32.4314 28.9368 32.7235 28.2441C33.0781 27.3957 33.3089 27.3957 32.0012 26.0749Z" stroke="#CDA274" stroke-width="2" stroke-miterlimit="10"></path>
  </symbol>
  <symbol fill="none" xmlns="http://www.w3.org/2000/svg" viewBox="0 0 9 16" id="projects_arrow">
    <path d="M1.771 14.6859L7.71386 8.00017L1.771 1.31445" stroke="#292F36" stroke-width="2" stroke-linecap="round" stroke-linejoin="round"></path>
  </symbol>
  <symbol fill="none" xmlns="http://www.w3.org/2000/svg" viewBox="0 0 18 15" id="twitter-icon">
    <path d="M16.1367 3.76563C16.8398 3.23829 17.4727 2.60547 17.9648 1.86719C17.332 2.14844 16.5938 2.35938 15.8555 2.42969C16.6289 1.97266 17.1914 1.26954 17.4727 0.390625C16.7695 0.8125 15.9609 1.12891 15.1523 1.30469C14.4492 0.566406 13.5 0.144531 12.4453 0.144531C10.4062 0.144531 8.75391 1.79688 8.75391 3.83594C8.75391 4.11719 8.78906 4.39844 8.85938 4.67969C5.80078 4.50391 3.05859 3.02735 1.23047 0.8125C0.914062 1.33985 0.738281 1.97266 0.738281 2.67579C0.738281 3.94141 1.37109 5.06641 2.39062 5.73438C1.79297 5.69922 1.19531 5.5586 0.703125 5.27735V5.3125C0.703125 7.10547 1.96875 8.58204 3.65625 8.9336C3.375 9.00391 3.02344 9.07422 2.70703 9.07422C2.46094 9.07422 2.25 9.03907 2.00391 9.00391C2.46094 10.4805 3.83203 11.5352 5.44922 11.5704C4.18359 12.5547 2.60156 13.1524 0.878906 13.1524C0.5625 13.1524 0.28125 13.1172 0 13.0821C1.61719 14.1368 3.55078 14.7344 5.66016 14.7344C12.4453 14.7344 16.1367 9.14454 16.1367 4.25782C16.1367 4.08204 16.1367 3.94141 16.1367 3.76563Z" fill="#292F36"></path>
  </symbol>
</svg>